<?xml version="1.0" encoding="utf-8"?>
<!-- Generator: Adobe Illustrator 15.1.0, SVG Export Plug-In . SVG Version: 6.00 Build 0)  -->
<!DOCTYPE svg PUBLIC "-//W3C//DTD SVG 1.1//EN" "http://www.w3.org/Graphics/SVG/1.1/DTD/svg11.dtd">
<svg version="1.1" id="Layer_1" xmlns:sketch="http://www.bohemiancoding.com/sketch/ns"
	 xmlns="http://www.w3.org/2000/svg" xmlns:xlink="http://www.w3.org/1999/xlink" x="0px" y="0px" width="200px" height="200px"
	 viewBox="0 0 200 200" enable-background="new 0 0 200 200" xml:space="preserve">
<title>Facebook</title>
<description>Created with Sketch (http://www.bohemiancoding.com/sketch)</description>
<g id="Page-1" sketch:type="MSPage">
	<path id="Facebook" sketch:type="MSShapeGroup" fill="#F5989D" d="M80.303,198.061C34.507,188.913,0,148.486,0,100
		C0,44.771,44.771,0,100,0s100,44.771,100,100c0,51.836-39.439,94.46-89.948,99.501v-36.684v-37.315l14.419-0.135l14.42-0.133
		l0.416-9.898c0.282-5.451,0.529-11.553,0.555-13.508L140,98.35h-14.975h-14.974l0.139-12.572
		c0.132-12.138,0.136-12.688,1.109-14.445c2.062-3.725,4.872-4.401,18.44-4.414h9.705l0.277-12.438
		c0.176-6.78,0.247-12.334,0.139-12.439c-0.502-0.485-9.367-1.048-17.054-1.07c-9.368-0.026-14.005,0.506-19.55,2.407
		c-10.842,3.718-18.007,10.952-21.49,21.667c-0.853,2.625-0.952,4.138-1.109,18.056L80.52,98.35H70.26H60v13.509v13.643h10.398
		h10.26l-0.277,36.914C80.24,179.043,80.213,193.317,80.303,198.061z"/>
</g>
</svg>
