<?xml version="1.0" encoding="utf-8"?>
<!-- Generator: Adobe Illustrator 15.1.0, SVG Export Plug-In . SVG Version: 6.00 Build 0)  -->
<!DOCTYPE svg PUBLIC "-//W3C//DTD SVG 1.1//EN" "http://www.w3.org/Graphics/SVG/1.1/DTD/svg11.dtd">
<svg version="1.1" id="Layer_1" xmlns:sketch="http://www.bohemiancoding.com/sketch/ns"
	 xmlns="http://www.w3.org/2000/svg" xmlns:xlink="http://www.w3.org/1999/xlink" x="0px" y="0px" width="200px" height="200px"
	 viewBox="0 0 200 200" enable-background="new 0 0 200 200" xml:space="preserve">
<title>Instagram</title>
<description>Created with Sketch (http://www.bohemiancoding.com/sketch)</description>
<g id="Page-1" sketch:type="MSPage">
	<path id="Instagram" sketch:type="MSShapeGroup" fill="#F5989D" d="M100,0C44.771,0,0,44.771,0,100s44.771,100,100,100
		s100-44.771,100-100S155.229,0,100,0z M150.003,165H49.997C41.715,165,35,158.282,35,149.995V49.997C35,41.714,41.715,35,49.997,35
		h100.006C158.286,35,165,41.714,165,49.997v99.998C165,158.282,158.286,165,150.003,165z M155,88h-12.561
		c0.914,3.574,1.455,7.309,1.455,11.17c0,24.672-19.875,44.668-44.395,44.668c-24.519,0-44.396-19.996-44.396-44.668
		c0-3.861,0.543-7.596,1.458-11.17H44v61.422C44,152.5,46.486,155,49.555,155h99.89c3.068,0,5.555-2.5,5.555-5.578V88z M156,48.999
		c0-2.76-2.239-4.999-5.005-4.999h-14.996c-2.762,0-4.999,2.239-4.999,4.999v15.002c0,2.76,2.237,4.999,4.999,4.999h14.996
		c2.766,0,5.005-2.239,5.005-4.999V48.999z M100.498,65C80.892,65,65,80.891,65,100.498C65,120.102,80.892,136,100.498,136
		C120.105,136,136,120.102,136,100.498C136,80.891,120.105,65,100.498,65z"/>
</g>
</svg>
