<?xml version="1.0" encoding="utf-8"?>
<!-- Generator: Adobe Illustrator 15.1.0, SVG Export Plug-In . SVG Version: 6.00 Build 0)  -->
<!DOCTYPE svg PUBLIC "-//W3C//DTD SVG 1.1//EN" "http://www.w3.org/Graphics/SVG/1.1/DTD/svg11.dtd">
<svg version="1.1" xmlns="http://www.w3.org/2000/svg" xmlns:xlink="http://www.w3.org/1999/xlink" x="0px" y="0px" width="200px"
	 height="200px" viewBox="0 0 200 200" enable-background="new 0 0 200 200" xml:space="preserve">
<g id="Layer_1" xmlns:sketch="http://www.bohemiancoding.com/sketch/ns">
	<title>Soundcloud</title>
	<description>Created with Sketch (http://www.bohemiancoding.com/sketch)</description>
	<path id="Soundcloud" sketch:type="MSShapeGroup" fill="#F5989D" d="M94.807,129.339v-0.002V129.339
		c-0.013,0.554-0.244,1.055-0.609,1.418c-0.367,0.366-0.87,0.593-1.419,0.593c-0.619,0-1.178-0.287-1.551-0.734
		c-0.276-0.331-0.449-0.75-0.472-1.205c-0.001-0.023-0.004-0.047-0.005-0.07c0,0-0.765-16.293-0.765-16.316l0.758-40.197
		l0.007-0.383c0.011-0.708,0.384-1.332,0.936-1.692c0.317-0.207,0.691-0.329,1.093-0.329c0.412,0,0.798,0.127,1.12,0.346
		c0.536,0.363,0.896,0.979,0.908,1.674l0.854,40.593l-0.77,14.684l-0.084,1.611h0l0,0.004v0.002c0-0.002,0-0.004,0-0.005v0.005
		V129.339C94.807,129.339,94.807,129.339,94.807,129.339L94.807,129.339z M0,100c0,55.229,44.771,100,100,100s100-44.771,100-100
		S155.229,0,100,0S0,44.771,0,100z M47.752,130.072L47.752,130.072v0.002V130.072z"/>
</g>
<g id="Layer_2">
	<g>
		<path fill="#FFFFFF" d="M83.873,76.869c-1.04,0-1.872,0.829-1.892,1.885l-0.845,34.11l0.846,16.412
			c0.019,1.046,0.851,1.871,1.891,1.871c1.038,0,1.869-0.825,1.891-1.883v0.014l0.948-16.413L85.764,78.75
			C85.741,77.697,84.91,76.869,83.873,76.869z"/>
		<path fill="#FFFFFF" d="M77.184,75.713c-0.962,0-1.734,0.767-1.756,1.746l-0.926,35.403l0.927,16.517
			c0.021,0.97,0.792,1.739,1.755,1.739c0.958,0,1.729-0.77,1.754-1.748v0.012l1.042-16.52l-1.042-35.405
			C78.913,76.479,78.143,75.713,77.184,75.713z"/>
		<path fill="#FFFFFF" d="M72.165,76.529c-0.028-0.903-0.739-1.609-1.618-1.609c-0.882,0-1.593,0.708-1.619,1.61l-1.007,36.329
			l1.008,16.677c0.025,0.894,0.736,1.599,1.618,1.599c0.879,0,1.589-0.705,1.618-1.605L73.3,112.86L72.165,76.529z"/>
		<path fill="#FFFFFF" d="M63.961,76.239c-0.803,0-1.455,0.647-1.483,1.473c0,0.001-1.087,35.145-1.087,35.145l1.088,16.781
			c0.028,0.816,0.68,1.463,1.483,1.463c0.799,0,1.449-0.645,1.482-1.471l0,0.01l1.228-16.783L65.443,77.71
			C65.41,76.885,64.76,76.239,63.961,76.239z"/>
		<path fill="#FFFFFF" d="M57.328,79.17c-0.725,0-1.316,0.585-1.347,1.334c0,0.002-1.168,32.438-1.168,32.438l1.169,16.955
			c0.03,0.742,0.621,1.328,1.346,1.328c0.72,0,1.311-0.586,1.346-1.334l-0.001,0.009l1.322-16.958l-1.321-32.439
			C58.639,79.755,58.047,79.17,57.328,79.17z"/>
		<path fill="#FFFFFF" d="M50.944,85.252c-0.646,0-1.177,0.526-1.21,1.198l-1.249,26.4l1.249,17.061
			c0.033,0.666,0.564,1.193,1.21,1.193c0.64,0,1.171-0.527,1.209-1.197v0.006l1.414-17.062l-1.414-26.402
			C52.116,85.777,51.584,85.252,50.944,85.252z"/>
		<path fill="#FFFFFF" d="M45.586,96.61c-0.041-0.599-0.503-1.053-1.074-1.053c-0.576,0-1.037,0.455-1.073,1.059l-1.331,16.228
			l1.331,17.062c0.036,0.601,0.497,1.058,1.073,1.058c0.57,0,1.032-0.456,1.074-1.059l1.507-17.062L45.586,96.61z"/>
		<path fill="#FFFFFF" d="M38.133,94.428c-0.496,0-0.899,0.396-0.938,0.921l-1.409,17.494l1.41,16.923
			c0.039,0.522,0.443,0.919,0.938,0.919c0.489,0,0.892-0.396,0.936-0.919l1.601-16.923l-1.601-17.496
			C39.025,94.823,38.622,94.428,38.133,94.428z"/>
		<path fill="#FFFFFF" d="M31.805,95.029c-0.422,0-0.759,0.329-0.802,0.784c0,0.001-1.491,17.025-1.491,17.025l1.491,16.402
			c0.042,0.457,0.379,0.786,0.802,0.786c0.414,0,0.75-0.329,0.799-0.782l1.695-16.406l-1.693-17.025
			C32.555,95.358,32.219,95.029,31.805,95.029z"/>
		<path fill="#FFFFFF" d="M19.62,103.339c-0.333,0-0.597,0.257-0.641,0.625l-1.168,8.873l1.168,8.723
			c0.044,0.367,0.308,0.624,0.641,0.624c0.324,0,0.586-0.255,0.639-0.62l1.384-8.727l-1.384-8.876
			C20.207,103.595,19.944,103.339,19.62,103.339z"/>
		<path fill="#FFFFFF" d="M25.527,97.843c-0.339,0-0.619,0.271-0.665,0.646c0,0.001-1.571,14.349-1.571,14.349l1.571,14.032
			c0.045,0.375,0.325,0.647,0.665,0.647c0.337,0,0.609-0.266,0.663-0.645l1.789-14.035l-1.788-14.35
			C26.137,98.106,25.864,97.843,25.527,97.843z"/>
	</g>
	<path fill="#FFFFFF" d="M161.774,92.249c-2.693,0-5.264,0.546-7.603,1.526c-1.563-17.711-16.416-31.606-34.534-31.606
		c-4.434,0-8.754,0.872-12.572,2.349c-1.483,0.575-1.877,1.164-1.891,2.311v62.375c0.016,1.203,0.948,2.138,2.122,2.255
		c0.05,0.006,54.478,0,54.478,0c10.854,0,19.65-8.701,19.65-19.556C181.425,101.048,172.628,92.249,161.774,92.249z"/>
	<path fill="#FFFFFF" d="M102.259,67.085c-0.324-0.196-0.7-0.311-1.102-0.311c-0.517,0-0.992,0.186-1.365,0.494
		c-0.48,0.396-0.792,0.996-0.8,1.665l-0.004,0.223l-0.883,44.049l0.45,8.144l0.438,7.925c0.015,1.172,0.986,2.141,2.165,2.141
		c1.176,0,2.146-0.969,2.162-2.158v0.019v0.001l0.964-16.069v-0.001l-0.964-44.275C103.31,68.147,102.884,67.462,102.259,67.085z"/>
</g>
</svg>
