<?xml version="1.0" encoding="utf-8"?>
<!-- Generator: Adobe Illustrator 15.1.0, SVG Export Plug-In . SVG Version: 6.00 Build 0)  -->
<!DOCTYPE svg PUBLIC "-//W3C//DTD SVG 1.1//EN" "http://www.w3.org/Graphics/SVG/1.1/DTD/svg11.dtd">
<svg version="1.1" id="Layer_1" xmlns:sketch="http://www.bohemiancoding.com/sketch/ns"
	 xmlns="http://www.w3.org/2000/svg" xmlns:xlink="http://www.w3.org/1999/xlink" x="0px" y="0px" width="200px" height="200px"
	 viewBox="0 0 200 200" enable-background="new 0 0 200 200" xml:space="preserve">
<title>Twitter</title>
<description>Created with Sketch (http://www.bohemiancoding.com/sketch)</description>
<g id="Page-1" sketch:type="MSPage">
	<path id="Twitter" sketch:type="MSShapeGroup" fill="#F5989D" d="M100,0C44.772,0,0,44.772,0,100c0,55.229,44.772,100,100,100
		c55.229,0,100-44.771,100-100C200,44.772,155.229,0,100,0z M129.748,46.481c4.834,0.939,10.75,3.637,13.365,6.176l2.128,2.018
		l4.142-1.068c2.312-0.6,5.852-1.812,7.926-2.732c2.074-0.919,3.967-1.6,4.141-1.425c0.723,0.726-3.459,6.635-7.098,9.976
		l-3.902,3.564l3.43-0.475c1.919-0.255,5.254-1.064,7.336-1.783c2.256-0.779,3.785-1.018,3.785-0.593
		c0,0.392-2.744,3.386-6.033,6.65l-5.913,5.936l-0.474,6.769c-1.461,20.883-9.031,37.995-23.066,52.254
		c-11.026,11.203-23.745,18.013-38.916,20.901c-6.893,1.314-19.403,1.748-25.316,0.95c-7.245-0.977-16.246-3.705-23.658-7.244
		L35,143.148l6.98-0.475c8.32-0.525,14.062-1.912,20.702-4.986c4.905-2.272,11.39-6.259,10.882-6.768
		c-0.151-0.152-2.059-0.666-4.258-1.068c-7.874-1.448-15.217-6.715-18.926-13.776l-1.775-3.442l5.443-0.357
		c5.458-0.342,7.427-0.958,5.087-1.664c-7.071-2.129-14.184-8.023-17.39-14.37c-1.291-2.558-3.194-9.462-3.194-11.636
		c0-0.129,0.655,0.182,1.419,0.593c1.48,0.794,10.273,2.748,10.647,2.375c0.121-0.122-1.525-1.957-3.55-4.036
		c-2.021-2.079-4.5-5.552-5.561-7.718c-1.741-3.568-1.889-4.595-1.893-11.044c-0.004-5.476,0.288-7.885,1.302-10.451L42.218,51
		l2.722,3.086C57.359,68.066,75.502,77.18,95.329,79.38l3.785,0.357l-0.235-5.343c-0.265-6.51,0.958-11.158,4.259-16.151
		c5.041-7.639,14.217-12.438,22.941-12.237C127.326,46.037,128.533,46.246,129.748,46.481z"/>
</g>
</svg>
