<?xml version="1.0" encoding="utf-8"?>
<!-- Generator: Adobe Illustrator 15.1.0, SVG Export Plug-In . SVG Version: 6.00 Build 0)  -->
<!DOCTYPE svg PUBLIC "-//W3C//DTD SVG 1.1//EN" "http://www.w3.org/Graphics/SVG/1.1/DTD/svg11.dtd">
<svg version="1.1" id="Layer_1" xmlns:sketch="http://www.bohemiancoding.com/sketch/ns"
	 xmlns="http://www.w3.org/2000/svg" xmlns:xlink="http://www.w3.org/1999/xlink" x="0px" y="0px" width="200px" height="200px"
	 viewBox="0 0 200 200" enable-background="new 0 0 200 200" xml:space="preserve">
<title>YouTube</title>
<description>Created with Sketch (http://www.bohemiancoding.com/sketch)</description>
<g id="Page-1" sketch:type="MSPage">
	<path id="YouTube" sketch:type="MSShapeGroup" fill="#F5989D" d="M100,0C44.771,0,0,44.771,0,100s44.771,100,100,100
		s100-44.771,100-100S155.229,0,100,0L100,0L100,0z M64.087,29.376c0.58,0,1.214,0.022,1.829,0.072l2.988,0.248l2.65,9.477
		c1.458,5.212,2.852,9.274,3.097,9.03c0.245-0.243,1.488-4.509,2.765-9.477l2.324-9.03l3.676-0.235
		c2.742-0.176,3.676,0.04,3.676,0.845c0,0.594-1.914,7.364-4.255,15.048l-4.262,13.974v10.92v10.919H74.79h-3.785l-0.326-11.801
		L70.353,57.56l-4.666-13.811c-3.33-9.859-4.388-13.918-3.706-14.179C62.309,29.443,63.122,29.377,64.087,29.376L64.087,29.376
		L64.087,29.376z M114.184,42.469h3.482h3.482v16.25v16.256h1.817c3.991,0,4.376-1.556,4.376-17.668V42.469h3.483h3.483v19.347
		v19.352h-3.483c-2.968,0-3.483-0.227-3.483-1.545c0-1.959-0.122-1.947-3.561,0.386c-3.445,2.337-5.98,2.458-8.053,0.386
		c-1.461-1.46-1.545-2.582-1.545-19.739V42.469L114.184,42.469z M97.976,42.475c1.96,0.005,3.954,0.437,5.433,1.31
		c3.939,2.327,4.585,4.935,4.582,18.538c-0.003,10.801-0.186,12.565-1.516,14.747c-2.908,4.771-9.019,6.228-13.817,3.302
		c-4.063-2.478-4.792-5.294-4.792-18.568c0-12.659,0.5-14.697,4.346-17.723C93.571,43.01,95.753,42.469,97.976,42.475L97.976,42.475
		L97.976,42.475z M97.927,48.668c-0.431,0-0.859,0.154-1.352,0.465c-1.165,0.734-1.39,2.359-1.582,11.608
		c-0.275,13.298-0.08,14.234,2.934,14.234c1.734,0,2.396-0.421,2.722-1.739c0.237-0.958,0.334-6.581,0.212-12.495
		c-0.191-9.249-0.417-10.874-1.582-11.608C98.786,48.822,98.358,48.668,97.927,48.668L97.927,48.668L97.927,48.668z M97.71,90.017
		c21.222-0.049,44.778,0.851,48.979,2.143c3.808,1.171,6.78,3.426,8.245,6.26c4.146,8.016,5.167,41.978,1.775,59.036
		c-0.863,4.344-4.18,8.971-7.75,10.816c-3.566,1.845-43.084,3.67-63.026,2.91c-16.397-0.625-31.723-1.912-33.967-2.85
		c-3.691-1.542-7.259-6.274-8.197-10.877c-1.307-6.411-2.436-25.846-1.938-33.326c1.443-21.65,2.627-26.452,7.34-29.808
		c3.689-2.626,5.939-2.929,28.902-3.917C83.826,90.156,90.636,90.033,97.71,90.017L97.71,90.017L97.71,90.017z M49.938,102.838
		v3.869v3.875h4.255h4.262v22.443v22.449h4.256h4.255v-22.449v-22.443h4.256h4.261v-3.875v-3.869H62.711H49.938L49.938,102.838z
		 M102.569,102.838v26.318v26.318h3.483c2.949,0,3.482-0.236,3.482-1.527c0-1.445,0.146-1.426,2.818,0.387
		c3.544,2.404,5.801,2.42,8.561,0.049l2.166-1.871l0.218-15.737c0.2-14.64,0.109-15.921-1.34-18.26
		c-1.961-3.165-6.075-3.665-9.846-1.195l-1.799,1.177v-7.829v-7.829h-3.869H102.569L102.569,102.838z M139.379,115.84
		c-2.235-0.003-4.406,0.502-5.766,1.498c-4.018,2.942-4.72,5.697-4.72,18.398c0,13.17,0.714,15.652,5.415,18.821
		c3.753,2.53,9.161,2.067,12.435-1.069c2.499-2.394,4.126-6.637,3.7-9.657c-0.236-1.673-0.712-1.93-3.947-2.138l-3.677-0.234v3.042
		c0,3.425-1.374,5.025-3.99,4.647c-2.015-0.291-2.782-2.358-2.897-7.774l-0.078-3.646l7.159-0.224l7.159-0.224l-0.037-6.966
		c-0.04-8.065-1.28-11.236-5.197-13.262C143.375,116.246,141.352,115.844,139.379,115.84L139.379,115.84L139.379,115.84z
		 M89.416,115.912v15.14c0,14.255-0.097,15.224-1.6,16.727c-0.878,0.878-2.185,1.484-2.904,1.347
		c-1.169-0.225-1.328-1.979-1.515-16.691l-0.206-16.437H79.77c-1.882,0-3.654,0.377-3.936,0.833
		c-0.282,0.457-0.258,8.859,0.055,18.677c0.508,15.944,0.724,18,2.016,19.292c1.644,1.645,3.871,1.85,6.338,0.58
		c0.93-0.479,2.471-1.585,3.429-2.457l1.745-1.588v2.07c0,1.938,0.223,2.07,3.483,2.07h3.483l0.163-15.482
		c0.09-8.515,0.177-17.311,0.193-19.546l0.03-4.062l-3.676-0.235L89.416,115.912L89.416,115.912z M139.892,122.264
		c0.518-0.02,0.909,0.334,1.714,1.141c0.74,0.739,1.214,2.563,1.214,4.647v3.429h-3.048c-1.678,0-3.277-0.361-3.55-0.803
		c-0.903-1.462,0.495-6.936,1.974-7.727C139.01,122.516,139.489,122.277,139.892,122.264L139.892,122.264L139.892,122.264z
		 M113.355,122.456c0.492,0.011,0.924,0.272,1.461,0.81c0.95,0.949,1.301,3.387,1.539,10.72c0.375,11.497-0.297,14.812-3.06,15.14
		c-1.076,0.127-2.286-0.219-2.692-0.773c-0.424-0.577-0.616-6.039-0.447-12.82c0.273-10.909,0.419-11.878,1.865-12.652
		C112.555,122.594,112.973,122.447,113.355,122.456L113.355,122.456L113.355,122.456z"/>
</g>
</svg>
